<svg id="Capa_1" enable-background="new 0 0 512 512" height="512" viewBox="0 0 512 512" width="512" xmlns="http://www.w3.org/2000/svg"><g><path d="m91 272h70v30h-70z"/><g><path d="m176.724 152 271.698-98.89-8.549-23.489c-8.5-23.354-34.323-35.396-57.677-26.895l-338.289 123.127c-15.053 5.479-25.394 18.158-28.576 32.731 9.37-4.217 19.745-6.584 30.669-6.584z"/><path d="m468.944 109.491-10.261-28.19-194.243 70.699h87.713z"/><path d="m485.34 154.541-6.136-16.859-39.336 14.318h26.132c6.687 0 13.167.892 19.34 2.541z"/></g><path d="m466 182h-420c-24.813 0-45 20.187-45 45v240c0 24.813 20.187 45 45 45h420c24.813 0 45-20.187 45-45v-240c0-24.813-20.186-45-45-45zm-405 75c0-8.284 6.716-15 15-15h100c8.284 0 15 6.716 15 15v60c0 8.284-6.716 15-15 15h-100c-8.284 0-15-6.716-15-15zm15 105h40c8.284 0 15 6.716 15 15s-6.716 15-15 15h-40c-8.284 0-15-6.716-15-15s6.716-15 15-15zm100 90h-100c-8.284 0-15-6.716-15-15s6.716-15 15-15h100c8.284 0 15 6.716 15 15s-6.716 15-15 15zm40-60h-40c-8.284 0-15-6.716-15-15s6.716-15 15-15h40c8.284 0 15 6.716 15 15s-6.716 15-15 15zm100 0h-40c-8.284 0-15-6.716-15-15s6.716-15 15-15h40c8.284 0 15 6.716 15 15s-6.716 15-15 15zm100 0h-40c-8.284 0-15-6.716-15-15s6.716-15 15-15h40c8.284 0 15 6.716 15 15s-6.716 15-15 15z"/></g></svg>