<svg id="Capa_1" enable-background="new 0 0 512 512" height="512" viewBox="0 0 512 512" width="512" xmlns="http://www.w3.org/2000/svg"><g><path d="m511 226.999c0-10.215-3.427-19.641-9.183-27.202l-61.943-170.185c-8.487-23.317-34.36-35.382-57.677-26.895l-338.289 123.127c-23.317 8.487-35.382 34.36-26.895 57.677l2.576 7.077c-11.254 8.188-18.589 21.451-18.589 36.402l.001 240c0 24.813 20.187 45 45 45l420-.001c24.813 0 45-20.187 45-45zm-47.587-45h-105.969l93.573-34.058zm-32.917-90.439 10.26 28.19-171.026 62.25h-87.714zm-376.328 62.475 338.29-123.128c7.773-2.829 16.397 1.193 19.226 8.965l8.552 23.497-325.935 118.631h-45.917l-3.181-8.74c-2.829-7.772 1.193-16.396 8.965-19.225zm411.833 327.964-420 .001c-8.271 0-15-6.729-15-15l-.001-240c0-8.271 6.729-15 15-15l420-.001c8.271 0 15 6.729 15 15l.001 240c0 8.272-6.729 15-15 15z"/><path d="m76.001 362c-8.284 0-15 6.716-15 15s6.716 15 15 15h40c8.284 0 15-6.716 15-15s-6.716-15-15-15z"/><path d="m176.001 422h-100c-8.284 0-15 6.716-15 15s6.716 15 15 15h100c8.284 0 15-6.716 15-15s-6.716-15-15-15z"/><path d="m216.001 362h-40c-8.284 0-15 6.716-15 15s6.716 15 15 15h40c8.284 0 15-6.716 15-15s-6.716-15-15-15z"/><path d="m316.001 362h-40c-8.284 0-15 6.716-15 15s6.716 15 15 15h40c8.284 0 15-6.716 15-15s-6.716-15-15-15z"/><path d="m416.001 361.999h-40c-8.284 0-15 6.716-15 15s6.716 15 15 15h40c8.284 0 15-6.716 15-15s-6.716-15-15-15z"/><path d="m76 332h100c8.284 0 15-6.716 15-15v-60c0-8.284-6.716-15-15-15h-100c-8.284 0-15 6.716-15 15v60c0 8.284 6.716 15 15 15zm15-60h70v30h-70z"/></g></svg>